<?xml version="1.0" standalone="no"?>
<!DOCTYPE svg PUBLIC "-//W3C//DTD SVG 20010904//EN"
 "http://www.w3.org/TR/2001/REC-SVG-20010904/DTD/svg10.dtd">
<svg version="1.0" xmlns="http://www.w3.org/2000/svg"
 width="250.000000pt" height="250.000000pt" viewBox="0 0 250.000000 250.000000"
 preserveAspectRatio="xMidYMid meet">
<metadata>
Created by potrace 1.14, written by Peter Selinger 2001-2017
</metadata>
<g transform="translate(0.000000,250.000000) scale(0.100000,-0.100000)"
fill="#000000" stroke="none">
<path d="M384 2369 c-35 -10 -91 -67 -99 -102 -3 -12 -4 -463 -3 -1002 l3
-980 22 -40 c23 -44 55 -75 105 -102 31 -17 81 -18 843 -18 l810 0 41 22 c54
29 101 83 114 133 8 28 11 343 12 1014 l0 973 -23 36 c-39 59 -76 72 -210 72
-110 -1 -118 -2 -151 -27 -64 -49 -65 -52 -66 -431 0 -188 -1 -348 -1 -354 -1
-10 -113 -13 -526 -13 l-525 0 0 350 c0 391 -1 397 -65 446 -35 27 -43 28
-144 30 -58 1 -120 -3 -137 -7z m196 -678 c0 -498 1 -540 18 -560 25 -31 72
-37 102 -13 24 19 25 26 28 151 l4 131 524 0 524 0 0 -114 c0 -63 4 -126 10
-140 19 -52 94 -59 125 -12 14 20 16 94 16 560 l1 536 74 0 c63 0 74 -2 75
-17 4 -97 0 -1867 -5 -1886 -8 -33 -52 -57 -106 -57 l-40 0 0 128 c0 115 -2
130 -20 150 -26 27 -70 28 -101 3 -23 -18 -24 -27 -27 -149 l-4 -131 -523 0
-523 1 -4 133 c-3 120 -5 136 -23 149 -21 16 -72 21 -91 8 -26 -17 -34 -56
-34 -171 l0 -121 -34 0 c-43 0 -85 16 -102 38 -11 14 -13 204 -14 970 l0 952
75 0 75 0 0 -539z"/>
<path d="M1170 1225 c-25 -13 -54 -34 -66 -47 -30 -33 -199 -328 -213 -371
-24 -71 4 -147 69 -192 44 -30 95 -41 183 -40 37 0 67 -2 67 -6 0 -4 -8 -21
-17 -37 -35 -61 27 -126 93 -97 16 8 66 51 112 98 112 115 112 119 -12 242
-52 51 -103 94 -113 97 -28 7 -60 -8 -78 -36 -17 -25 -16 -34 9 -97 6 -14 -3
-16 -69 -14 -123 4 -123 4 -16 190 50 86 98 163 105 171 8 8 26 14 40 14 31 0
49 -24 150 -195 100 -171 98 -169 142 -167 47 2 78 35 71 77 -5 27 -134 259
-193 346 -54 79 -177 109 -264 64z"/>
<path d="M622 940 c-28 -12 -42 -47 -42 -105 0 -82 41 -124 101 -103 34 12 49
46 49 112 0 80 -47 121 -108 96z"/>
<path d="M1818 935 c-29 -16 -40 -49 -37 -111 4 -76 54 -117 108 -89 36 18 41
32 41 105 0 87 -49 129 -112 95z"/>
<path d="M966 2148 c-21 -68 -49 -157 -62 -198 -29 -90 -29 -96 -6 -102 16 -4
22 7 40 68 12 41 27 74 32 74 6 0 39 -9 73 -21 100 -34 167 -15 206 58 22 43
12 103 -27 161 -6 9 -199 82 -217 82 -1 0 -19 -55 -39 -122z m142 49 c6 -5 12
-7 12 -3 0 13 80 -35 90 -53 31 -59 -15 -151 -76 -151 -39 0 -154 39 -154 52
0 6 11 48 25 94 l26 83 32 -6 c18 -3 38 -10 45 -16z"/>
<path d="M1366 2151 c-2 -3 -8 -22 -14 -41 -6 -19 -34 -109 -62 -199 -42 -132
-50 -165 -39 -172 24 -15 27 -11 51 64 12 39 23 73 24 75 1 2 29 -4 62 -13
l60 -17 22 -82 c28 -98 36 -116 55 -116 19 0 19 14 1 73 -8 26 -12 47 -11 47
2 0 -3 16 -11 35 -14 33 -13 35 6 35 31 0 75 25 93 54 40 60 26 157 -27 191
-29 19 -205 74 -210 66z m109 -66 c72 -22 103 -47 111 -90 10 -58 -40 -125
-89 -120 -29 3 -139 37 -150 45 -4 4 4 40 18 81 14 41 25 82 25 93 0 10 5 16
13 14 6 -3 39 -13 72 -23z"/>
</g>
</svg>
